# xmcd CD database file
#
# Track frame offsets:
#	150
#	17798
#	36107
#	52860
#	71197
#	95192
#	123369
#	141620
#	165615
#	192684
#	287674
#
# Disc length: 4434 seconds
#
# Revision: 0
# Processed by: cddbd v1.5.2PL0 Copyright (c) Steve Scherf et al.
# Submitted via: CDex 1.51
#
DISCID=ab11500b
DTITLE=SPA - The sound of river
DYEAR=1900
DGENRE=New Age
TTITLE0=Time to goodbye
TTITLE1=Tare sole
TTITLE2=Song in paradise
TTITLE3=Connie's dance
TTITLE4=Snow kids
TTITLE5=Song in the meadow
TTITLE6=You must love me
TTITLE7=Raining
TTITLE8=Harbour
TTITLE9=Sky after rain
TTITLE10=Blue river
EXTD=
EXTT0=
EXTT1=
EXTT2=
EXTT3=
EXTT4=
EXTT5=
EXTT6=
EXTT7=
EXTT8=
EXTT9=
EXTT10=
PLAYORDER=
